<?xml version="1.0" encoding="utf-8"?>
<!-- Generator: Adobe Illustrator 19.0.0, SVG Export Plug-In . SVG Version: 6.00 Build 0)  -->
<svg version="1.1" id="Layer_1" xmlns="http://www.w3.org/2000/svg" xmlns:xlink="http://www.w3.org/1999/xlink" x="0px" y="0px"
	 viewBox="0 0 300 100" style="enable-background:new 0 0 300 100;" xml:space="preserve">
<style type="text/css">
	.st0{fill:#F0F0F0;}
	.st1{fill:#008ABF;}
</style>
<g id="XMLID_1_">
</g>
<g id="XMLID_6_">
</g>
<g id="XMLID_7_">
</g>
<g id="XMLID_8_">
</g>
<g id="XMLID_9_">
</g>
<g id="XMLID_10_">
</g>
<g id="XMLID_11_">
</g>
<g id="XMLID_12_">
</g>
<g id="XMLID_13_">
</g>
<g id="XMLID_14_">
</g>
<g id="XMLID_15_">
</g>
<g id="XMLID_16_">
</g>
<g id="XMLID_17_">
</g>
<g>
	<path id="XMLID_55_" class="st0" d="M193.7,43.6c-0.2-1.7-0.6-3.3-1-4.9c-1-3.5-2.5-6.8-4.4-9.8c-1.1-1.8-2.4-3-3.8-4.5
		c-5.7-6-13.5-9.4-22.1-9.4H114v68h48.4c8.6,0,16.4-3.9,22.1-10c1.4-1.5,2.7-3.2,3.8-5c1.9-2.9,3.4-6.3,4.4-9.8
		c0.4-1.6,0.8-3.2,1-4.9c0.2-1.6,0.3-3.2,0.3-4.9C194,46.8,193.9,45.2,193.7,43.6z M183.3,58.2c-1.6,3.9-4.1,7.8-7.2,10.3
		c-3.8,3.1-8.5,5.5-13.6,5.5H123V25h39.6c5.1,0,9.8,1.3,13.6,4.4c3.1,2.5,5.6,5.6,7.2,9.5c0.6,1.5,1.1,3.1,1.4,4.8
		c0.3,1.6,0.5,3.2,0.5,4.8c0,1.7-0.2,3.3-0.5,4.8C184.4,55,183.9,56.6,183.3,58.2z"/>
	<path id="XMLID_79_" class="st0" d="M279.3,58.6c-0.4-1.7-1-3.4-1.8-4.9c-1.5-2.8-3.6-5.1-6-6.8c0.7-0.9,1.4-1.9,2-3
		c0.8-1.5,1.4-3.1,1.8-4.9c0.4-1.6,0.6-3.2,0.6-4.9s-0.2-3.3-0.6-4.9c-0.4-1.7-1-3.2-1.8-4.7c-3.1-5.8-9-9.6-15.7-9.6H199v68h62.8
		c6.7,0,12.5-3.9,15.7-9.8c0.8-1.5,1.4-3.2,1.8-4.9c0.4-1.6,0.6-3.2,0.6-4.9S279.7,60.1,279.3,58.6z M208,25h49.5
		c3.3,0,6.3,1.7,7.8,4.6c0.8,1.4,1.2,3,1.2,4.7s-0.4,3.9-1.2,5.3c-1.6,2.9-4.5,5.3-7.8,5.3H208V25z M261.6,74H208V54h53.6
		c3.3,0,6.3,1.8,7.8,4.7c0.8,1.4,1.2,3,1.2,4.8c0,1.8-0.4,3.8-1.2,5.2C267.8,71.7,264.9,74,261.6,74z"/>
	<g id="XMLID_3_">
		<path id="XMLID_4_" class="st1" d="M89.5,63.6l9.6,5.3c-4.8,5.6-10.3,9.7-16.5,12.3c-6.1,2.5-13.4,3.8-22,3.8c-12,0-22-3-29.8-9
			c-9-6.9-13.5-15.9-13.5-26.9S21.9,29.2,31,22.3c8.1-6.1,17.9-9.1,29.6-9.1c16.9,0,30,5.9,39,17.6l-10.2,3.6
			c-6.9-7.3-16.5-11-28.8-11c-9.4,0-17,2.4-22.9,7.3c-5.9,4.8-8.8,10.9-8.8,18.3c0,7.7,2.9,13.8,8.7,18.6c5.9,4.7,13.7,7.1,23.6,7.1
			C73.2,74.8,82.6,71.1,89.5,63.6z"/>
	</g>
	<g id="XMLID_18_">
	</g>
</g>
</svg>
